<svg id="Layer_1" data-name="Layer 1" xmlns="http://www.w3.org/2000/svg" viewBox="0 0 336.8 514.09"><defs><style>.cls-1,.cls-2{fill:#fff;}.cls-1{fill-rule:evenodd;}</style></defs><title>logo</title><path class="cls-1" d="M99.71,188.84c4.73,17-6.81,26.81-15.36,34.73,9.15,13.34,16.12,28.85,25.38,42.08,19.42,8.93,42.18,10.33,64.79,11.36,29.36,1.33,50.53-8.84,74.14-11.36,17.61-1.88,29.82,4.22,42.08,8.68,7.6,2.77,14.34,7,21.38,9.36,2.52.85,6.1.15,8.68,1.33,16.53,7.54,20.05,53.31,9.35,70.14-5.77-12.9-5.26-31.36-5.34-46.76a247,247,0,0,0-6,24.05c-2,10.69-6.3,24.91-1.34,34.73,2.88,5.71,9.11,13.17,14,19.37,4.48,5.64,15.83,15.17,16,20,.22,5.32-2.2,11.26-2.67,17.36-1.92,24.93.54,56.31-4.68,78.82-1.54,1.61-2.15,1-4.68.67-2.32,4.13-1.24,11.67-3.33,16-4.11,3.28-16.55,2.74-20-.67,23-12.84,23.16-63.84,14-92.84-15.15,20.25-24.79,46-39.4,66.79-1.25,1.31-2.45.21-4,0-2.23,3.79-2.4,9.63-4.68,13.36-3.83,2.17-12.56,1.52-17.36.67,4.12-6.87,11.89-10.85,15.36-17.37,1-1.82.43-4.16,1.33-6,2.68-5.43,9.41-10.42,12.7-16.7,5.53-10.57,18.49-34.47,12.69-51.43-1.66-4.84-6.15-9.39-9.35-14C283.87,387.46,277.12,374,264,362.5c-26,7.8-64,3.69-94.85,6.68-6.72,35.07.13,81-2.67,118.9-1.93,2.26-1.58-.46-3.34.67-1.92,3.65-.73,10.41-2,14.69-3.59,2.81-12.49,3.75-17.37,1.34,20.63-13.65,13.18-49,8-76.82-3.44-18.5-6.56-36-13.36-46.75-9.2,2-14.62,9.94-20.7,15.36-6.4,5.69-13.12,10.88-18,18,5.56,18.71,8.85,39.69,18,54.78.39,2.39-.78,3.23-1.34,4.67,6.11,4.68,10.45,14,6.68,24.71-6.44-3.68-8.11-10.22-12-18-1.8-3.6-5.67-6.1-6.67-8.68-1.49-3.83-.88-9.16-2-13.36-1.86-6.91-5.38-13.41-8-20-3.91-9.83-8.84-14.93-10.69-26.72,9.52-15.86,19.23-31.53,26.05-50.09-6.07-5.78-3.6-12.21-6-20-1.69-5.49-13.24-12.1-18-16.7C68.28,308.38,58,290.74,52.29,262.31c-14.24-5.63-33.65,3.48-41.42-8-.69-4.26,1.46-5.68,1.34-9.36,11.55-6.92,21-16,30.72-24.71a13.68,13.68,0,0,1-2-8.68h8c-9.18-13.1,4.57-3,7.34,2.67,11.32-.9,11-18.57,12.69-13.36,7.9-4.79,16.57-8.81,22-16,1.31-1.33,3.81-.43,5.34,0M68.32,212.21H75c1.25-2,3.89-9.23,2-10-2.7,3.54-7.46,5-8.68,10" transform="translate(-10.73 -7.58)"/><path class="cls-2" d="M277.83,152.27l-15.58,5.15S268.82,166.28,277.83,152.27Z" transform="translate(-10.73 -7.58)"/><path class="cls-2" d="M277.83,152.27l-15.58,5.15S262.26,146.39,277.83,152.27Z" transform="translate(-10.73 -7.58)"/><path class="cls-2" d="M233.5,158.41l-16.26,2.18S222.06,170.51,233.5,158.41Z" transform="translate(-10.73 -7.58)"/><path class="cls-2" d="M233.5,158.41l-16.26,2.18S219.28,149.75,233.5,158.41Z" transform="translate(-10.73 -7.58)"/><path class="cls-2" d="M298.85,143.1l-16-3.49S284,150.58,298.85,143.1Z" transform="translate(-10.73 -7.58)"/><path class="cls-2" d="M298.85,143.1l-16-3.49S288.43,130.11,298.85,143.1Z" transform="translate(-10.73 -7.58)"/><path class="cls-2" d="M312.12,101.13l-12.19,11S309.51,117.57,312.12,101.13Z" transform="translate(-10.73 -7.58)"/><path class="cls-2" d="M312.12,101.13l-12.19,11S295.49,102,312.12,101.13Z" transform="translate(-10.73 -7.58)"/><path class="cls-2" d="M324.47,55,314.11,67.77S324.42,71.69,324.47,55Z" transform="translate(-10.73 -7.58)"/><path class="cls-2" d="M324.47,55,314.11,67.77S308.18,58.47,324.47,55Z" transform="translate(-10.73 -7.58)"/><path class="cls-2" d="M307.57,57.05l-7.83,14.42S310.59,73.42,307.57,57.05Z" transform="translate(-10.73 -7.58)"/><path class="cls-2" d="M307.57,57.05l-7.83,14.42S292.19,63.43,307.57,57.05Z" transform="translate(-10.73 -7.58)"/><path class="cls-2" d="M285.14,74.39l-16,3.73S274.91,87.53,285.14,74.39Z" transform="translate(-10.73 -7.58)"/><path class="cls-2" d="M285.14,74.39l-16,3.73S270.15,67.14,285.14,74.39Z" transform="translate(-10.73 -7.58)"/><path class="cls-2" d="M296.26,40,285.69,52.59S295.93,56.69,296.26,40Z" transform="translate(-10.73 -7.58)"/><path class="cls-2" d="M296.26,40,285.69,52.59S279.91,43.2,296.26,40Z" transform="translate(-10.73 -7.58)"/><path class="cls-2" d="M288,26.08l-8.24,14.19S290.56,42.53,288,26.08Z" transform="translate(-10.73 -7.58)"/><path class="cls-2" d="M288,26.08l-8.24,14.19S272.45,32,288,26.08Z" transform="translate(-10.73 -7.58)"/><path class="cls-2" d="M252.29,34.7,240.46,46.07S250.22,51.22,252.29,34.7Z" transform="translate(-10.73 -7.58)"/><path class="cls-2" d="M252.29,34.7,240.46,46.07S235.7,36.12,252.29,34.7Z" transform="translate(-10.73 -7.58)"/><path class="cls-2" d="M229.32,32.59,216.57,42.92S225.85,48.88,229.32,32.59Z" transform="translate(-10.73 -7.58)"/><path class="cls-2" d="M229.32,32.59,216.57,42.92S212.67,32.6,229.32,32.59Z" transform="translate(-10.73 -7.58)"/><path class="cls-2" d="M216.87,63.1,206.34,75.68S216.6,79.75,216.87,63.1Z" transform="translate(-10.73 -7.58)"/><path class="cls-2" d="M216.87,63.1,206.34,75.68S200.53,66.31,216.87,63.1Z" transform="translate(-10.73 -7.58)"/><path class="cls-2" d="M187.75,95.5l-15.22-6.14S171.83,100.36,187.75,95.5Z" transform="translate(-10.73 -7.58)"/><path class="cls-2" d="M187.75,95.5l-15.22-6.14S179.67,80.94,187.75,95.5Z" transform="translate(-10.73 -7.58)"/><path class="cls-2" d="M190.86,52.8l-16.11,3.13S180.15,65.55,190.86,52.8Z" transform="translate(-10.73 -7.58)"/><path class="cls-2" d="M190.86,52.8l-16.11,3.13S176.16,45,190.86,52.8Z" transform="translate(-10.73 -7.58)"/><path class="cls-2" d="M206.88,32.37,190.6,30.25S192.69,41.08,206.88,32.37Z" transform="translate(-10.73 -7.58)"/><path class="cls-2" d="M206.88,32.37,190.6,30.25S195.39,20.31,206.88,32.37Z" transform="translate(-10.73 -7.58)"/><path class="cls-2" d="M186.56,36.62,173.73,46.85S183,52.88,186.56,36.62Z" transform="translate(-10.73 -7.58)"/><path class="cls-2" d="M186.56,36.62,173.73,46.85S169.91,36.5,186.56,36.62Z" transform="translate(-10.73 -7.58)"/><path class="cls-2" d="M109.85,60.35l-6.36,15.13S114.49,76.34,109.85,60.35Z" transform="translate(-10.73 -7.58)"/><path class="cls-2" d="M109.85,60.35l-6.36,15.13S95.18,68.23,109.85,60.35Z" transform="translate(-10.73 -7.58)"/><path class="cls-2" d="M100,42.87,93.52,57.94S104.51,58.9,100,42.87Z" transform="translate(-10.73 -7.58)"/><path class="cls-2" d="M100,42.87,93.52,57.94S85.27,50.62,100,42.87Z" transform="translate(-10.73 -7.58)"/><path class="cls-2" d="M75.91,39.45,72.69,55.54S83.64,54.2,75.91,39.45Z" transform="translate(-10.73 -7.58)"/><path class="cls-2" d="M75.91,39.45,72.69,55.54S63.1,50.09,75.91,39.45Z" transform="translate(-10.73 -7.58)"/><path class="cls-2" d="M160.8,7.58,150.42,20.29S160.72,24.23,160.8,7.58Z" transform="translate(-10.73 -7.58)"/><path class="cls-2" d="M160.8,7.58,150.42,20.29S144.5,11,160.8,7.58Z" transform="translate(-10.73 -7.58)"/><path class="cls-2" d="M27.66,88.81l7.63,14.53S24.41,105.14,27.66,88.81Z" transform="translate(-10.73 -7.58)"/><path class="cls-2" d="M27.66,88.81l7.63,14.53S43,95.41,27.66,88.81Z" transform="translate(-10.73 -7.58)"/><path class="cls-2" d="M50.81,80.88,56,96.46S44.93,96.46,50.81,80.88Z" transform="translate(-10.73 -7.58)"/><path class="cls-2" d="M50.81,80.88,56,96.46S64.82,89.89,50.81,80.88Z" transform="translate(-10.73 -7.58)"/><path class="cls-2" d="M294.09,116.13c-2.57,4-21.73,1.16-25.37,1.39-5.86.36-10.21,3.32-15.54-1.1-10.56-8.76,19.68-12.87,24.58-13.88a64.43,64.43,0,0,0,16.55-5.28c1.91-1,6.1-2.34,7.35-4A24.46,24.46,0,0,0,304.21,88c2.78-6.69,14.14-15.22,11.26-23A117.59,117.59,0,0,1,301.7,87.05c-2.73,3.49-5.26,6.52-10.05,6.27-7.61-.4-16.35,6.16-23.3,7.55-9,1.81-16.79,6.16-25.74,6.68,6.79-9.93,16.93-14.29,28.19-17.64,14.65-4.36,22.61-10.07,32.09-21.87l-.12-.09c-6,3.89-8.74,10-15.83,12.82s-14.75,3.71-21.88,6.42-14.56,6-20,11.24c-6.74,6.56-6.85,8.41-16.33,5.84-8.2-2.23-9.31-1-4.24-8.8,2.77-4.24,5-11,10-12.81,4.49-1.69,13.36,0,18.47-.76,7.37-1.14,14.05-2.49,20.77-5.76-9,1.32-17.65,3.17-26.89,3.21-2.65,0-7.65.2-8.59-2.76-.58-1.83,6.39-9.13,7.64-10.62,5.37-6.39,11.18-12.62,20-12.36,6.18.18,16.42,3.79,21.32-3.15-1.27-.13-5.78,2.55-7.75,2.67a21.4,21.4,0,0,1-11.75-2.81c3.22-3.38,15-7.69,13.79-13.35-8.57,10.1-22.39,9.5-32.68,17-3.59,2.61-8,7.26-8.05,4-.08-5.06-.71-11.14,1.77-14.34l-.12,0c-5.61,2.32-5.41,19.51-6.28,23.8-1.3,6.44-22.38,31.81-25.35,35.67-5.65,7.34-10.29,13.89-18.15,18.87-3.15,2-6.35,4-8.74,6.91-2,2.46-2.8,8.25-5.16,9.72-4.28,2.65-12.27-3.57-17.73-2.27-6.69,1.59-8.33,9.3-15.3,7-8.63-2.89-14.16-8.62-23.81-9.68-14.33-1.58-30.19,0-44.08,3.7.92-4.54.69-9.5,4.71-12,3.76-2.4,7.84-2.78,11.61-6,7.92-6.74,14.7-18,23.5-23.24,4.35-2.62,9.87-2.39,14.75-3.36,5.55-1.09,10.75-5.12,15.9-6,4.6-.8,9.6,3.13,14.47,4,6.09,1.08,9.14.11,15.51-1.2-9.23-1.65-15.67-2.11-26-5.75,4.43-4.48,6.92-9.46,13.39-8.71,6.31.72,12.46,4.52,18.54,5.82,11,2.34,18.26,1.82,25.09-7.9-2.47,1.95-15,7-20,5.66-6.86-1.86-14.78-2-20.88-6.77,4.51-2.91,8.92-1.14,13.92-2.74s7.55-5.12,10.65-9c7.62-9.57,18.33-13.24,28.34-19.87-7,2.91-14.41,5.34-20.86,9.34-5.86,3.62-8.59,9.88-14,13.91-6.5,4.86-14.4,2-21.62,4.85-7,2.78-12.55,8.87-18.69,13.16-3.13,2.18-17,9.93-20.39,5.42C123.63,84.07,137,69.24,139.1,66.44c5.55-7.27,14.41-4.31,22.84-7,6.51-2,15-.83,19.64-6.88l-.05-.1c-2.93,1.76-19.71,6.13-19.72,2,0-5.28,12.86-4.44,13.5-9.71-2.2.82-4.88,1.24-7.11,2.07a20.39,20.39,0,0,0-7,3.86c-1.79,1.6-2,4.14-3.67,5.72-1.95,1.88-8.11,4.63-10.42,1.47-2-2.76,1.7-5.25,3.52-7.55,5.37-6.78,9.06-15,17.62-18,7.13-2.55,19.95,1.62,25.59-2.8-6.66-1.59-14.54-.78-21.38-1-7.89-.23-13.65-.49-18.68,6.38-8.62,11.77-15.65,24.62-25.23,35.76-10.32,12-17.49,22.52-30,32.35-8.63,6.78-6.83-2.71-3.69-7,5.55-7.52,10-13.14,9.45-23.45h-.16c-3.44,7.71-5,13.62-11.24,19.47-3.09-13.91-1.09-24.26,2.67-38.14l-.07,0c-7.59,12.39-6.38,24.53-7.07,38.44-.25,5.09.15,10.9-.66,15.95-.71,4.45-4.94,10.6-9.24,5.54C77,112,76,99.2,75.42,96.53c-1.29-5.76.47-8.22,2.43-13.53,3.63-9.78-1.93-22.61-4.61-32.27-4.09,9.09,4,20.2,1.12,29.69-1.85,6.17-4.46,12.07-3.13,18.8,1.46,7.35,3.57,11.77,1.09,19.54-4,12.59-9.81,23.66-11.11,37-1.43,14.76.19,29.47-3.72,44-.91,3.36.27,10.75-.82,14.25-4.35,14.08-43.77,85.59,3.89,12.32,6.13-9.42,35.31-26.11,46.28-28.54a49.7,49.7,0,0,1,20.14-.37c7.49,1.36,14.06-.77,21.62-1.61,14.06-1.55,26.1-9.9,40-9.57,7.7.19,15.88-4.17,23-6.65,7.72-2.67,15.25-6.14,23.1-8.39,12.45-3.58,20.06-9,31.48-15.72-12.44.5-18.14,8.47-30.7,10.92-6.76,1.32-30.61,14.07-35.8,12.23,2.17-1.09,0,.17-.09.11,2.84-4.74,3.92-9.36,8.35-12.9,3.39-2.72,7.61-4.64,11.47-6.64-5.21-.09-12.58,3.51-16,7.07-7.15,7.35-7.77,14.29-18.36,14.5-5.4.11-21.09,4.24-27.38,6.23-9,2.85-17.63,6.09-27.39,4.88,10.21-14.58,30.28-18.52,44.32-28.18,7.24-5,12.39-2.61,20.65-3.45,7.81-.79,13.79-4.53,19.21-10.07,5.88-6,9.3-5.35,17-7.75,6.2-1.93,12.28-4.33,18.45-6.35,3.64-1.19,6.66-2,10.48-1.13s7.12,2.62,11.28,3.22c4.63.66,10.67,2,15.3,1.8-7.15-4.65-16.05-1.59-22.7-7.38,6.21-3.33,13.19-3.41,19.95-5.08,7.72-1.9,14.88-14.42,18.75-18.83M72.37,162.39c.13,0-.21-7.38.21-8.52,1.56-4.13,4.48-4,8.7-5.16,10.18-2.71,20.53-5.12,31.12-5.59,9.23-.42,19,2.42,27.5,5.87,7.9,3.21,16.23,5.86,23.95,9.43-3.93,2.8-9,2.72-13.52,4.49-5.67,2.2-10.78,5.55-16,8.65-9,5.35-18,11.25-28.57,12.14-5.25.43-10.51.56-15.75,1.12-4.29.46-10.72,2.91-14.82,2.21-5.25-.88-2.72-3.48-1.85-8.61C74.32,172.67,73.32,168,72.37,162.39Zm120.07-29.86c3.57-3.75,7.88-6.47,11.48-10.11s5.6-10,10.48-12.56c3.94-2,9.31-1.07,13.35.17,4.9,1.5,5,1.68,2.76,6.49-2.65,5.79-6.93,14.1-10.94,19S178.26,147.41,192.44,132.53Zm47-19.29c4.91-.15,8,1.94,10.17,6.14.73,1.37,4.45,9.39,3.74,10.73-1.25,2.38-11.44,4-14,4.75-4.56,1.43-9.8,4.13-14.58,3.75C226.91,131,233.4,118.22,239.41,113.24ZM270.9,120c0-.29,12.22,3.12,13.61,3.79-5.22,2.68-23.71,7.73-28.68,3.64C246.91,120.1,267.72,120.33,270.9,120Zm-79.8,34.22a27.06,27.06,0,0,1-8-1.83c3.73-6.11,5.44-5.72,12.41-6.43,4.66-.47,9.64-1.6,14.32-1.1C206.94,151.47,197.71,153.91,191.1,154.24Zm-27.65-9.48c4.26.89,8.06,1.24,11.58,3.88-3.93,3.33-7.23,2.89-12.24,1.13C157.46,147.89,158.79,146.74,163.45,144.76Zm118.49-46c-3.54-.72,7.25-4.89,9.92-3.55C289,97.16,285.19,97.8,281.94,98.8Z" transform="translate(-10.73 -7.58)"/><path class="cls-2" d="M238.69,167.43c4,3.81,5.29,2.21,10.5,4.46,4,1.71,19.95,0,24.2.9-10.72,3.22-28.75,4.45-35.41-2.69" transform="translate(-10.73 -7.58)"/><path class="cls-2" d="M150.25,44.78c-1.17-5.4-3.7-10.66-2.9-16.28.62-4.29,2.8-8.64,4.25-12.74-3.84,3.49-8.07,11.36-8.14,16.37-.12,9.45,10.29,18-1.09,23.82" transform="translate(-10.73 -7.58)"/><path class="cls-2" d="M127.72,136.65c12.16-10.86,23.4-25,39.39-30.18,14.78-4.77,33.59-3.87,49-3.68.82,7.08-8.36,5.19-13.49,5.17-8.13,0-16.22.25-24.16,2.19-18.71,4.57-30.12,19.28-44.58,30.72" transform="translate(-10.73 -7.58)"/><path class="cls-2" d="M64.22,148.5c-9.64-7.71-7.22-19.08-5.46-29.77,1.4-8.54,6.52-21.33-4.91-24.77-.19,1.22,1.49,1.9,1.68,3.1.58,3.52,2.14,6.09,2,9.89-.22,5.75-2.13,13.53-5.47,18.24C46.84,119.69,41,100.58,31.78,102,50.32,120.17,45.64,149.56,66.14,167" transform="translate(-10.73 -7.58)"/><path class="cls-2" d="M72.88,190c3.7-4.12,6.77-8.84,10.76-12.7s8.48-6.48,12.37-10.19a66.77,66.77,0,0,0,17.46-28.81c3.09-9.91,3.92-20,4.54-30.32.16-2.77-.42-12.89,1.71-14.56.67-.53,4.6-.16,5.52-.19-.91,18.26-1.36,40.36-7.56,57.59-7.12,19.83-25.69,32.7-40.16,47" transform="translate(-10.73 -7.58)"/><path class="cls-2" d="M284.16,175l-16.27-2.12S270,183.66,284.16,175Z" transform="translate(-10.73 -7.58)"/><path class="cls-2" d="M284.16,175l-16.27-2.12S272.67,162.89,284.16,175Z" transform="translate(-10.73 -7.58)"/></svg>